<?xml version="1.0" encoding="utf-8"?>
<!-- Svg Vector Icons : http://www.onlinewebfonts.com/icon -->
<!DOCTYPE svg PUBLIC "-//W3C//DTD SVG 1.1//EN" "http://www.w3.org/Graphics/SVG/1.1/DTD/svg11.dtd">
<svg version="1.1" xmlns="http://www.w3.org/2000/svg" xmlns:xlink="http://www.w3.org/1999/xlink" x="0px" y="0px" viewBox="0 0 1000 1000" enable-background="new 0 0 1000 1000" xml:space="preserve">
<metadata> Svg Vector Icons : http://www.onlinewebfonts.com/icon </metadata>
<g><path d="M500,10C229.4,10,10,229.4,10,500c0,270.6,219.4,490,490,490c270.6,0,490-219.4,490-490C990,229.4,770.6,10,500,10z M654.9,211.1c76.1-1.6,138.5,59.9,139.6,137.6c1.1,78.8-57.2,141.1-134,143.1c-75.8,2-138-59.6-139-137.4C520.6,275,578.5,212.7,654.9,211.1z M198.6,282.9c1.8-75.5,67.8-138.2,143-136c76.3,2.3,136.8,66.2,135.2,142.8c-1.6,76.8-64.6,136.8-141.9,135C258.8,423,196.7,358.3,198.6,282.9z M211.9,833.1c-17.4-15.2-36.1-36.6-39.8-58.2c-6.3-36.7-1.7-75.2-1.7-113c-6-0.4-12-0.8-18-1.2c-3.6,27-7.2,54.1-10.9,82.3c-64.9-41.6-97.3-127.9-75.8-202.2c21.5-74.6,83.1-83.3,146.9-84.4c79.9-1.3,159.9-1.3,239.8,0.2c25.8,0.5,51.5,7.6,93.8,14.4c-109.3,83.7-297.9,85.8-207.4,282.3c-28.7,19.1-54.6,36.7-81,53.7C242.2,816.9,216.3,836.9,211.9,833.1z M448.4,567.6c51.5,1.8,98,51.6,96.9,103.8c-1.2,56.9-43.1,97.5-100.5,97.3C385.9,768.5,341,722,344,664.4C346.7,611.8,396.3,565.8,448.4,567.6z M570.4,932.1c-23.1,8.2-49.2,7.8-93.8,13.8c-48-14.2-114.6-29.4-177.6-53.9c-47.4-18.5-46.5-50-4.1-79.4c52.2-36.2,249.7-40.5,297.2,0.8c20,17.4,30.2,53.6,31.3,81.8C624,907.3,591,924.8,570.4,932.1z M844.5,771.4C833,744,822.1,718,811.2,692c-4.3,0.5-8.5,1.1-12.8,1.6c0,45.4,16,100.6-4.2,133.7c-23,37.6-78.4,55.5-105.3,72.7c-45.2-57-82.3-103.9-127.9-161.4c35.9-66.2,13-137.8-61.9-194.7c116.6-71.7,336.3-37.2,385.8,56.1C926,677.2,919.3,707.7,844.5,771.4z"/></g>
</svg>