<?xml version="1.0" encoding="iso-8859-1"?>
<!-- Generator: Adobe Illustrator 16.0.0, SVG Export Plug-In . SVG Version: 6.00 Build 0)  -->
<!DOCTYPE svg PUBLIC "-//W3C//DTD SVG 1.1//EN" "http://www.w3.org/Graphics/SVG/1.1/DTD/svg11.dtd">
<svg version="1.1" id="Capa_1" xmlns="http://www.w3.org/2000/svg" xmlns:xlink="http://www.w3.org/1999/xlink" x="0px" y="0px"
	 width="83.818px" height="83.818px" viewBox="0 0 83.818 83.818" style="enable-background:new 0 0 83.818 83.818;"
	 xml:space="preserve">
<g>
	<g>
		<path d="M25.623,44.699c-0.494-0.23-0.864-0.463-1.149-0.717c-0.571-0.511-0.998-1.674-1.104-2.127
			c-0.18-0.762-0.118-1.932-0.063-2.963c0.021-0.396,0.041-0.756,0.041-1.033c0-0.574,0.056-1.318,0.115-2.105
			c0.127-1.686,0.286-3.781-0.068-4.797c-0.506-1.455-1.398-3.188-2.771-3.188c-1.6,0-3.345,2.205-3.56,3.105
			c-0.339,1.426-0.339,4.535-0.001,5.943c0.063,0.262,0.37,0.783,0.617,1.203c0.24,0.408,0.467,0.795,0.598,1.127
			c0.071,0.184,0.173,0.408,0.286,0.658c0.559,1.244,1.254,2.793,0.799,3.873c-0.67,1.588-2.82,2.406-5.096,3.273
			c-1.615,0.615-3.445,1.313-3.955,2.129c-0.907,1.453-1.425,5.178-0.638,6.027c1.849,1.996,6.853,3.338,12.453,3.338h0.001
			c2.504,0,4.833-0.269,6.776-0.767c-1.449-0.664-2.609-1.463-3.464-2.387C22.917,52.572,24.417,46.666,25.623,44.699z"/>
		<path d="M41.909,0C18.763,0,0.001,18.764,0.001,41.91c0,23.145,18.763,41.909,41.908,41.909S83.817,65.054,83.817,41.91
			C83.817,18.763,65.055,0,41.909,0z M31.749,58.506c-2.451,1.051-5.868,1.631-9.622,1.631c0,0,0,0-0.001,0
			c-4.66,0-11.041-1.016-13.692-3.879c-1.558-1.682-0.619-6.365,0.444-8.07c0.81-1.297,2.741-2.033,4.786-2.812
			c1.759-0.67,3.752-1.43,4.141-2.352c0.169-0.402-0.522-1.944-0.783-2.523c-0.126-0.279-0.239-0.531-0.318-0.734
			c-0.082-0.209-0.285-0.555-0.48-0.889c-0.335-0.568-0.681-1.158-0.803-1.664c-0.399-1.656-0.399-5.053,0-6.729
			c0.36-1.514,2.667-4.404,5.203-4.404c1.305,0,3.122,0.75,4.366,4.32c0.47,1.35,0.304,3.543,0.158,5.48
			c-0.057,0.754-0.111,1.469-0.111,1.979c0,0.301-0.02,0.693-0.043,1.123c-0.044,0.826-0.104,1.959,0.021,2.486
			c0.101,0.43,0.436,1.113,0.585,1.252c0.38,0.341,1.139,0.634,1.677,0.822c0.273,0.098,0.478,0.325,0.542,0.608
			s-0.021,0.578-0.225,0.783c-0.231,0.232-0.396,0.432-0.519,0.629c-0.997,1.598-2.209,6.625-0.396,8.582
			c1.058,1.143,2.736,2.076,4.988,2.775c0.338,0.105,0.575,0.408,0.593,0.762S32.074,58.365,31.749,58.506z M40.691,57.74
			c-4.663,0-11.049-1.016-13.702-3.881c-1.558-1.683-0.619-6.367,0.444-8.07c0.81-1.297,2.741-2.033,4.786-2.812
			c1.759-0.673,3.752-1.433,4.141-2.355c0.17-0.402-0.523-1.943-0.785-2.525c-0.125-0.277-0.237-0.529-0.317-0.732
			c-0.082-0.209-0.285-0.553-0.481-0.887c-0.334-0.57-0.681-1.158-0.802-1.664c-0.399-1.656-0.399-5.053,0-6.73
			c0.36-1.512,2.666-4.404,5.203-4.404c1.305,0,3.122,0.75,4.366,4.322c0.47,1.348,0.304,3.543,0.158,5.479
			c-0.057,0.756-0.111,1.469-0.111,1.98c0,0.299-0.021,0.691-0.043,1.121c-0.044,0.828-0.104,1.959,0.02,2.486
			c0.103,0.43,0.438,1.115,0.586,1.254c0.53,0.475,1.769,0.865,2.965,1.246c1.686,0.534,3.277,1.038,4.09,2.01
			c1.584,1.895,4.174,7.873,2.342,10.227C51.633,56.268,46.825,57.74,40.691,57.74z M73.239,45.979
			c1.582,1.893,4.172,7.873,2.342,10.225c-1.917,2.463-6.721,3.936-12.85,3.936l0,0c-4.654,0-9.045-0.898-11.748-2.4
			c-0.275-0.153-0.443-0.446-0.435-0.764c0.009-0.314,0.192-0.598,0.476-0.736c1.241-0.6,2.203-1.332,2.859-2.176
			c1.575-2.021,0.193-5.867-0.475-7.428c-0.09-0.211-0.09-0.449,0-0.662c0.09-0.211,0.262-0.377,0.476-0.459l0.366-0.141
			c1.758-0.67,3.75-1.428,4.139-2.35c0.169-0.402-0.523-1.944-0.783-2.523c-0.125-0.279-0.238-0.533-0.317-0.736
			c-0.082-0.207-0.285-0.553-0.481-0.887c-0.334-0.57-0.681-1.158-0.803-1.664c-0.398-1.658-0.398-5.055,0-6.729
			c0.359-1.514,2.666-4.404,5.203-4.404c1.305,0,3.121,0.75,4.365,4.32c0.47,1.348,0.304,3.543,0.158,5.48
			c-0.058,0.754-0.111,1.469-0.111,1.979c0,0.301-0.021,0.693-0.043,1.123c-0.045,0.826-0.104,1.957,0.021,2.486
			c0.103,0.43,0.437,1.113,0.587,1.254c0.529,0.474,1.768,0.863,2.963,1.244C70.834,44.5,72.425,45.006,73.239,45.979z"/>
		<path d="M46.608,43.177c-1.43-0.452-2.779-0.879-3.58-1.596c-0.57-0.51-0.998-1.672-1.104-2.125
			c-0.18-0.762-0.118-1.932-0.063-2.963c0.021-0.395,0.04-0.758,0.04-1.033c0-0.574,0.056-1.318,0.116-2.107
			c0.127-1.684,0.286-3.779-0.068-4.795c-0.507-1.455-1.398-3.188-2.77-3.188c-1.6,0-3.345,2.205-3.56,3.105
			c-0.339,1.424-0.34,4.535-0.001,5.941c0.063,0.262,0.37,0.783,0.616,1.203c0.241,0.41,0.467,0.795,0.598,1.129
			c0.071,0.18,0.172,0.404,0.285,0.654c0.56,1.246,1.256,2.795,0.801,3.877c-0.671,1.588-2.82,2.407-5.097,3.273
			c-1.615,0.615-3.446,1.313-3.955,2.129c-0.907,1.453-1.425,5.179-0.638,6.027c1.85,1.998,6.858,3.34,12.462,3.34
			c5.45,0,9.973-1.289,11.526-3.285c1.014-1.301-0.754-6.248-2.305-8.104C49.415,44.068,47.924,43.595,46.608,43.177z"/>
		<path d="M65.058,43.982c-0.572-0.515-0.998-1.677-1.104-2.127c-0.18-0.764-0.119-1.932-0.063-2.963
			c0.021-0.396,0.041-0.756,0.041-1.033c0-0.574,0.056-1.318,0.116-2.107c0.127-1.684,0.285-3.779-0.068-4.795
			c-0.507-1.455-1.397-3.188-2.77-3.188c-1.6,0-3.346,2.205-3.561,3.105c-0.338,1.424-0.34,4.535,0,5.943
			c0.062,0.26,0.369,0.783,0.616,1.201c0.24,0.41,0.468,0.795,0.599,1.129c0.072,0.184,0.174,0.408,0.287,0.66
			c0.558,1.244,1.252,2.791,0.797,3.871c-0.625,1.484-2.547,2.297-4.654,3.105c0.896,2.369,1.751,5.971-0.075,8.316
			c-0.524,0.672-1.19,1.282-1.991,1.821c2.467,0.965,5.885,1.522,9.504,1.522c5.445,0,9.965-1.287,11.518-3.281
			c1.013-1.303-0.756-6.25-2.305-8.104c-0.498-0.596-1.99-1.068-3.306-1.486C67.209,45.123,65.858,44.697,65.058,43.982z"/>
	</g>
</g>
<g>
</g>
<g>
</g>
<g>
</g>
<g>
</g>
<g>
</g>
<g>
</g>
<g>
</g>
<g>
</g>
<g>
</g>
<g>
</g>
<g>
</g>
<g>
</g>
<g>
</g>
<g>
</g>
<g>
</g>
</svg>
